<?xml version="1.0" standalone="no"?>
<!DOCTYPE svg PUBLIC "-//W3C//DTD SVG 20010904//EN"
 "http://www.w3.org/TR/2001/REC-SVG-20010904/DTD/svg10.dtd">
<svg version="1.0" xmlns="http://www.w3.org/2000/svg"
 width="512.000000pt" height="512.000000pt" viewBox="0 0 512.000000 512.000000"
 preserveAspectRatio="xMidYMid meet">

<g transform="translate(0.000000,512.000000) scale(0.100000,-0.100000)"
fill="#000000" stroke="none">
<path d="M480 4147 c-19 -6 -58 -34 -85 -62 -71 -70 -91 -146 -63 -237 14 -48
76 -121 118 -138 l30 -12 0 -658 0 -658 -30 -12 c-42 -17 -104 -90 -118 -138
-17 -56 -17 -729 0 -786 16 -55 99 -138 154 -154 83 -24 161 -9 221 43 l37 32
47 -66 c104 -148 256 -256 440 -313 l74 -23 1205 -3 c858 -2 1228 0 1284 8 88
13 198 49 266 88 112 64 233 178 286 268 l26 44 39 -33 c63 -54 140 -69 223
-45 55 16 138 99 154 154 17 57 17 730 0 786 -14 48 -76 121 -118 138 l-30 12
0 658 0 658 30 12 c68 28 130 129 130 210 0 125 -114 240 -238 240 -126 0
-242 -115 -242 -240 0 -81 62 -182 130 -210 l30 -12 0 -657 0 -656 -42 -23
c-23 -12 -42 -21 -44 -20 -1 2 -19 46 -39 98 -186 472 -518 833 -966 1050
-455 219 -963 249 -1459 84 -41 -14 -142 -59 -225 -99 -431 -214 -755 -569
-935 -1025 -23 -58 -43 -106 -44 -108 -2 -1 -21 8 -44 20 l-42 23 0 656 0 657
30 12 c42 17 104 90 118 138 26 86 8 162 -55 232 -65 72 -158 97 -253 67z
m2906 -1438 c162 -29 321 -151 394 -303 151 -314 -2 -667 -340 -782 -52 -18
-100 -19 -880 -19 l-825 0 -67 23 c-261 90 -419 345 -380 613 26 180 141 337
305 418 45 22 105 44 132 49 73 14 1586 15 1661 1z"/>
<path d="M1746 2549 c-62 -15 -153 -68 -197 -116 -22 -24 -55 -74 -72 -111
-29 -61 -32 -76 -32 -163 0 -90 2 -99 37 -171 45 -91 103 -147 196 -191 l67
-32 815 0 815 0 67 32 c93 44 151 100 196 191 35 72 37 81 37 172 0 91 -2 100
-37 172 -45 91 -103 147 -196 191 l-67 32 -795 2 c-459 1 -811 -3 -834 -8z
m328 -161 c86 -26 166 -136 166 -228 0 -124 -116 -240 -240 -240 -124 0 -240
116 -240 240 0 63 23 114 75 165 70 71 145 90 239 63z m1120 0 c86 -26 166
-136 166 -228 0 -124 -116 -240 -240 -240 -124 0 -240 116 -240 240 0 63 23
114 75 165 70 71 145 90 239 63z"/>
</g>
</svg>
